<?xml version="1.0" encoding="UTF-8" standalone="no"?>
<!-- Created with Inkscape (http://www.inkscape.org/) -->

<svg
   xmlns:dc="http://purl.org/dc/elements/1.1/"
   xmlns:cc="http://creativecommons.org/ns#"
   xmlns:rdf="http://www.w3.org/1999/02/22-rdf-syntax-ns#"
   xmlns:svg="http://www.w3.org/2000/svg"
   xmlns="http://www.w3.org/2000/svg"
   xmlns:sodipodi="http://sodipodi.sourceforge.net/DTD/sodipodi-0.dtd"
   xmlns:inkscape="http://www.inkscape.org/namespaces/inkscape"
   width="128"
   height="128"
   id="svg2"
   version="1.1"
   inkscape:version="0.48.4 r9939"
   sodipodi:docname="component.svg"
   inkscape:export-filename="/home/benny/git/ardublockly/blockly/media/mark/func.png"
   inkscape:export-xdpi="90"
   inkscape:export-ydpi="90">
  <defs
     id="defs4" />
  <sodipodi:namedview
     id="base"
     pagecolor="#ffffff"
     bordercolor="#666666"
     borderopacity="1.0"
     inkscape:pageopacity="0.0"
     inkscape:pageshadow="2"
     inkscape:zoom="2.6843746"
     inkscape:cx="13.517919"
     inkscape:cy="42.08451"
     inkscape:document-units="px"
     inkscape:current-layer="layer1"
     showgrid="false"
     fit-margin-top="0"
     fit-margin-left="0"
     fit-margin-right="0"
     fit-margin-bottom="0"
     inkscape:window-width="1282"
     inkscape:window-height="676"
     inkscape:window-x="-2"
     inkscape:window-y="149"
     inkscape:window-maximized="0" />
  <metadata
     id="metadata7">
    <rdf:RDF>
      <cc:Work
         rdf:about="">
        <dc:format>image/svg+xml</dc:format>
        <dc:type
           rdf:resource="http://purl.org/dc/dcmitype/StillImage" />
        <dc:title />
      </cc:Work>
    </rdf:RDF>
  </metadata>
  <g
     inkscape:label="Laag 1"
     inkscape:groupmode="layer"
     id="layer1"
     transform="translate(-129.68076,83.122894)">
    <g
       id="g3222"
       transform="matrix(0,-1.2580428,1.2580428,0,215.79929,228.53442)"
       style="fill:#70d65c;fill-opacity:0.94117647">
      <g
         transform="translate(157.43056,-67.334278)"
         id="g3091"
         style="fill:#70d65c;fill-opacity:0.94117647">
        <path
           id="path3093"
           d="m 75.498,81.47 h -6.221 v 10.942 h 6.221 c 2.954,0 5.347,-2.393 5.347,-5.347 v -0.249 c 0,-2.954 -2.393,-5.346 -5.347,-5.346 z"
           inkscape:connector-curvature="0"
           style="fill:#70d65c;fill-opacity:0.94117647" />
      </g>
      <g
         transform="translate(157.43056,-67.334278)"
         id="g3095"
         style="fill:#70d65c;fill-opacity:0.94117647">
        <path
           id="path3097"
           d="m 75.498,63.091 h -6.221 v 10.947 h 6.221 c 2.954,0 5.347,-2.397 5.347,-5.352 v -0.249 c 0,-2.954 -2.393,-5.346 -5.347,-5.346 z"
           inkscape:connector-curvature="0"
           style="fill:#70d65c;fill-opacity:0.94117647" />
      </g>
      <g
         transform="translate(157.43056,-67.334278)"
         id="g3099"
         style="fill:#70d65c;fill-opacity:0.94117647">
        <path
           id="path3101"
           d="m 75.498,44.712 h -6.221 v 10.947 h 6.221 c 2.954,0 5.347,-2.393 5.347,-5.347 v -0.249 c 0,-2.954 -2.393,-5.351 -5.347,-5.351 z"
           inkscape:connector-curvature="0"
           style="fill:#70d65c;fill-opacity:0.94117647" />
      </g>
      <g
         transform="translate(157.43056,-67.334278)"
         id="g3103"
         style="fill:#70d65c;fill-opacity:0.94117647">
        <path
           id="path3105"
           d="M 75.498,26.338 H 69.277 V 37.28 h 6.221 c 2.954,0 5.347,-2.393 5.347,-5.347 v -0.249 c 0,-2.954 -2.393,-5.346 -5.347,-5.346 z"
           inkscape:connector-curvature="0"
           style="fill:#70d65c;fill-opacity:0.94117647" />
      </g>
      <g
         transform="translate(157.43056,-67.334278)"
         id="g3107"
         style="fill:#70d65c;fill-opacity:0.94117647">
        <path
           id="path3109"
           d="m 75.498,7.959 h -6.221 v 10.947 h 6.221 c 2.954,0 5.347,-2.393 5.347,-5.352 V 13.31 c 0,-2.954 -2.393,-5.351 -5.347,-5.351 z"
           inkscape:connector-curvature="0"
           style="fill:#70d65c;fill-opacity:0.94117647" />
      </g>
      <g
         transform="translate(157.43056,-67.334278)"
         id="g3111"
         style="fill:#70d65c;fill-opacity:0.94117647">
        <path
           id="path3113"
           d="m 5.347,81.47 h 6.221 V 92.412 H 5.347 C 2.393,92.412 0,90.02 0,87.065 V 86.816 C 0,83.862 2.393,81.47 5.347,81.47 z"
           inkscape:connector-curvature="0"
           style="fill:#70d65c;fill-opacity:0.94117647" />
      </g>
      <g
         transform="translate(157.43056,-67.334278)"
         id="g3115"
         style="fill:#70d65c;fill-opacity:0.94117647">
        <path
           id="path3117"
           d="m 5.347,63.091 h 6.221 V 74.038 H 5.347 C 2.393,74.038 0,71.641 0,68.687 v -0.249 c 0,-2.955 2.393,-5.347 5.347,-5.347 z"
           inkscape:connector-curvature="0"
           style="fill:#70d65c;fill-opacity:0.94117647" />
      </g>
      <g
         transform="translate(157.43056,-67.334278)"
         id="g3119"
         style="fill:#70d65c;fill-opacity:0.94117647">
        <path
           id="path3121"
           d="m 5.347,44.712 h 6.221 V 55.659 H 5.347 C 2.393,55.659 0,53.267 0,50.313 v -0.249 c 0,-2.955 2.393,-5.352 5.347,-5.352 z"
           inkscape:connector-curvature="0"
           style="fill:#70d65c;fill-opacity:0.94117647" />
      </g>
      <g
         transform="translate(157.43056,-67.334278)"
         id="g3123"
         style="fill:#70d65c;fill-opacity:0.94117647">
        <path
           id="path3125"
           d="m 5.347,26.338 h 6.221 V 37.28 H 5.347 C 2.393,37.28 0,34.888 0,31.934 V 31.685 C 0,28.73 2.393,26.338 5.347,26.338 z"
           inkscape:connector-curvature="0"
           style="fill:#70d65c;fill-opacity:0.94117647" />
      </g>
      <g
         transform="translate(157.43056,-67.334278)"
         id="g3127"
         style="fill:#70d65c;fill-opacity:0.94117647">
        <path
           id="path3129"
           d="m 5.347,7.959 h 6.221 V 18.906 H 5.347 C 2.393,18.906 0,16.514 0,13.555 V 13.311 C 0,10.356 2.393,7.959 5.347,7.959 z"
           inkscape:connector-curvature="0"
           style="fill:#70d65c;fill-opacity:0.94117647" />
      </g>
      <g
         transform="translate(157.43056,-67.334278)"
         id="g3131"
         style="fill:#70d65c;fill-opacity:0.94117647">
        <path
           id="path3133"
           d="M 61.318,0 H 19.526 C 17.329,0 15.547,1.782 15.547,3.979 V 96.02 c 0,2.197 1.782,3.979 3.979,3.979 h 41.792 c 2.197,0 3.979,-1.782 3.979,-3.979 V 3.979 C 65.298,1.782 63.516,0 61.318,0 z M 40.425,13.408 c -5.21,0 -9.429,-4.219 -9.429,-9.429 h 18.857 c 10e-4,5.21 -4.223,9.429 -9.428,9.429 z"
           inkscape:connector-curvature="0"
           style="fill:#70d65c;fill-opacity:0.94117647" />
      </g>
    </g>
  </g>
</svg>
